Coordinates
version=1
nRows=5
nColumns=46
inDegrees=yes

Units are S.I. units (second, meters, Newtons, ...)
Angles are in degrees.

endheader
time	pelvis_tilt	pelvis_list	pelvis_rotation	pelvis_tx	pelvis_ty	pelvis_tz	bb_angle	bb_tx	bb_ty	bb_tz	hip_flexion_r	hip_adduction_r	hip_rotation_r	knee_angle_r	knee_angle_r_beta	ankle_angle_r	subtalar_angle_r	mtp_angle_r	crank_angle_r	hip_flexion_l	hip_adduction_l	hip_rotation_l	knee_angle_l	knee_angle_l_beta	ankle_angle_l	subtalar_angle_l	mtp_angle_l	crank_angle_l	lumbar_extension	lumbar_bending	lumbar_rotation	arm_flex_r	arm_add_r	arm_rot_r	elbow_flex_r	pro_sup_r	wrist_flex_r	wrist_dev_r	arm_flex_l	arm_add_l	arm_rot_l	elbow_flex_l	pro_sup_l	wrist_flex_l	wrist_dev_l
      7.50000000	    -29.73891965	    -11.54923836	     -5.05238061	      0.44112084	      1.19429345	     -0.24963279	      0.00000000	      0.50000000	      0.00000000	      0.25000000	     81.20078170	      0.30102629	    -11.36865807	    102.76845220	      1.79364786	    -19.96418712	     -7.55465792	      0.00000000	      0.00000000	     28.17607264	    -17.39283580	     -4.49295554	     18.21236387	      0.31786571	    -16.43012717	     -0.91191918	      0.00000000	      0.00000000	    -66.02592875	      8.97513151	      2.38015197	     78.99073140	    -10.64286667	     50.39145486	     67.55794817	     58.79320202	      0.00000000	      0.00000000	     29.71558141	    -40.08498061	     -1.32842513	    106.49065362	     54.82647446	      0.00000000	      0.00000000
      7.50500000	    -29.57403554	    -11.12756094	     -5.70531625	      0.44147288	      1.19552910	     -0.24898415	      0.00000000	      0.50000000	      0.00000000	      0.25000000	     81.90094332	      0.67977940	    -11.03260261	    102.56746844	      1.79014003	    -20.17458360	     -7.90444058	      0.00000000	      0.00000000	     27.31917394	    -17.39542302	     -5.57373437	     18.58335640	      0.32434076	    -16.52884223	     -0.44585992	      0.00000000	      0.00000000	    -66.24143973	      8.63537298	      2.65591321	     79.29123615	    -10.62740510	     50.67328519	     67.60466969	     58.81745554	      0.00000000	      0.00000000	     30.07444367	    -40.39841894	     -0.82041665	    105.77764996	     54.79672488	      0.00000000	      0.00000000
      7.51000000	    -29.51343213	    -10.78984304	     -6.27491499	      0.44178433	      1.19677174	     -0.24876742	      0.00000000	      0.50000000	      0.00000000	      0.25000000	     82.57649078	      0.97238370	    -10.78444864	    102.19090911	      1.78356783	    -20.35670850	     -7.91026194	      0.00000000	      0.00000000	     26.79617054	    -17.38815935	     -6.28165651	     19.27344467	      0.33638507	    -16.66271191	     -0.52720113	      0.00000000	      0.00000000	    -66.49114774	      8.44095213	      2.89632310	     79.61122607	    -10.47886589	     50.69913405	     67.73447094	     58.82988506	      0.00000000	      0.00000000	     30.15917150	    -40.46506866	     -0.70324880	    105.43521718	     54.76357407	      0.00000000	      0.00000000
      7.51500000	    -29.46841137	    -10.53218087	     -7.04287718	      0.44244815	      1.19811730	     -0.24803313	      0.00000000	      0.50000000	      0.00000000	      0.25000000	     83.11882400	      1.55139906	    -10.62090510	    101.65700382	      1.77424942	    -20.46033967	     -8.07402792	      0.00000000	      0.00000000	     26.45940271	    -17.71572574	     -7.60436239	     20.47822414	      0.35741244	    -16.25305783	      0.53102979	      0.00000000	      0.00000000	    -66.69190659	      8.07381937	      3.34050257	     79.88460287	    -10.61588960	     51.07376806	     67.85880850	     58.87404768	      0.00000000	      0.00000000	     30.59513720	    -40.37171859	     -0.29436977	    104.64150445	     54.71761150	      0.00000000	      0.00000000
      7.52000000	    -29.44029025	    -10.26645793	     -7.48983287	      0.44259682	      1.19973942	     -0.24783837	      0.00000000	      0.50000000	      0.00000000	      0.25000000	     83.48105186	      1.71144062	    -10.58135435	    100.94835822	      1.76188123	    -20.37655520	     -8.08500249	      0.00000000	      0.00000000	     26.39049250	    -17.74242463	     -7.90954329	     21.75925504	      0.37977064	    -16.37993445	      0.08566265	      0.00000000	      0.00000000	    -67.01624101	      7.95719022	      3.57102390	     80.21535308	    -10.46045261	     51.05698156	     68.01433718	     58.88500248	      0.00000000	      0.00000000	     30.78673438	    -40.39415640	     -0.32213870	    104.41349928	     54.68304377	      0.00000000	      0.00000000
